<svg width="613" height="235" viewBox="0 0 613 235" fill="none" xmlns="http://www.w3.org/2000/svg">
<path d="M51.5269 140.921C51.5269 120.628 67.5766 105.318 89.2628 105.318C95.7816 105.318 103.266 107.461 109.101 111.367V126.487C103.852 121.315 96.6488 118.393 89.7496 118.393C75.6471 118.393 66.1162 127.952 66.1162 140.921C66.1162 153.889 75.6471 163.257 89.7496 163.257C96.6564 163.257 103.852 160.328 109.101 155.163V170.284C103.266 174.182 95.774 176.333 89.2628 176.333C67.5766 176.325 51.5269 161.106 51.5269 140.921Z" fill="#00182F"/>
<path d="M115.026 150.38C115.026 135.558 126.695 124.336 141.87 124.336C157.045 124.336 168.713 135.55 168.713 150.38C168.713 165.21 156.946 176.325 141.87 176.325C126.794 176.325 115.026 165.012 115.026 150.38ZM141.87 163.936C149.263 163.936 154.9 158.184 154.9 150.38C154.9 142.576 149.256 136.725 141.87 136.725C134.484 136.725 128.84 142.576 128.84 150.38C128.84 158.184 134.484 163.936 141.87 163.936Z" fill="#00182F"/>
<path d="M224.629 147.55V175.151H211.013V148.038C211.013 141.211 206.928 136.725 200.706 136.725C194.484 136.725 190.399 141.211 190.399 148.038V175.151H176.784V147.55C176.784 133.506 186.216 124.336 200.706 124.336C215.197 124.336 224.629 133.506 224.629 147.55Z" fill="#00182F"/>
<path d="M251.761 112.145V125.511H268.1V136.824H251.761V154.477C251.761 161.503 255.747 164.425 260.03 164.425C263.529 164.425 265.963 163.448 268.1 162.281V174.182C264.601 175.646 260.806 176.325 257.596 176.325C246.505 176.325 238.047 169.597 238.047 155.255V136.824H230.075V125.511H238.047V112.145H251.761Z" fill="#00182F"/>
<path d="M272.284 150.38C272.284 135.848 282.4 124.435 297.279 124.435C313.131 124.435 321.787 137.213 319.551 153.21H284.348C285.709 160.427 291.642 165.21 300.976 165.21C307.198 165.21 313.23 162.769 317.9 158.772V170.375C313.914 173.884 307.297 176.325 298.648 176.325C282.895 176.325 272.291 165.889 272.291 150.38H272.284ZM306.513 144.14C306.125 138.678 301.942 134.68 296.206 134.68C290.471 134.68 286.287 137.9 284.728 144.14H306.513Z" fill="#00182F"/>
<path d="M342.689 148.328V175.151H329.074V125.511H342.689V133.117C345.511 127.456 351.247 124.336 356.305 124.336C363.402 124.336 368.361 127.258 371.085 132.819C374.971 127.258 380.326 124.336 387.226 124.336C398.217 124.336 404.728 132.14 404.728 146.284V175.151H391.113V147.451C391.113 140.822 387.903 136.725 382.844 136.725C377.299 136.725 373.701 141.211 373.701 148.328V175.151H360.086V147.451C360.086 140.822 356.876 136.725 351.916 136.725C346.272 136.725 342.674 141.211 342.674 148.328H342.689Z" fill="#00182F"/>
<path d="M429.533 167.644V175.151H415.917V106.485H429.533V133.017C432.545 127.456 438.189 124.336 445.385 124.336C458.803 124.336 469.407 135.359 469.407 150.38C469.407 165.401 458.803 176.325 445.385 176.325C438.189 176.325 432.545 173.205 429.533 167.644ZM442.563 163.936C449.957 163.936 455.593 158.184 455.593 150.38C455.593 142.576 449.949 136.725 442.563 136.725C435.177 136.725 429.533 142.576 429.533 150.38C429.533 158.184 435.177 163.936 442.563 163.936Z" fill="#00182F"/>
<path d="M475.431 150.38C475.431 135.848 485.548 124.435 500.426 124.435C516.278 124.435 524.934 137.213 522.698 153.21H487.495C488.857 160.427 494.79 165.21 504.123 165.21C510.345 165.21 516.377 162.769 521.048 158.772V170.375C517.062 173.884 510.444 176.325 501.795 176.325C486.042 176.325 475.439 165.889 475.439 150.38H475.431ZM509.661 144.14C509.273 138.678 505.089 134.68 499.354 134.68C493.618 134.68 489.435 137.9 487.875 144.14H509.661Z" fill="#00182F"/>
<path d="M554.007 137.114C548.271 137.114 545.16 141.699 545.16 149.694V175.151H531.544V147.451C531.544 133.307 537.478 124.336 551.481 124.336C553.52 124.336 558.19 124.824 560.039 125.503V138.472C559.065 137.793 555.368 137.106 554.007 137.106V137.114Z" fill="#00182F"/>
<path d="M144.133 91V62.84H162.653V68.16H149.973V73.64H160.413V78.96H149.973V85.68H163.613V91H144.133ZM164.8 91L171.8 80.4L165.2 70.64H171.72L175.16 75.72L178.56 70.64H185.12L178.48 80.48L185.56 91H179.04L175.12 85.16L171.28 91H164.8ZM198.988 78.96C198.988 76.4 196.988 74.92 194.028 74.92C191.748 74.92 189.628 75.8 187.868 77.28V72.32C189.788 70.84 192.348 70.16 194.828 70.16C200.628 70.16 204.588 73.64 204.588 78.64V91H198.988V88.4C198.068 90.28 195.988 91.48 193.508 91.48C189.548 91.48 186.668 88.68 186.668 84.92C186.668 81.08 189.708 78.44 193.988 78.44C195.908 78.44 197.788 79.04 198.988 79.92V78.96ZM192.108 84.76C192.108 86.2 193.228 87.12 194.948 87.12C197.148 87.12 198.868 85.72 198.988 83.52V83.48C197.868 82.76 196.548 82.32 195.188 82.32C193.308 82.32 192.108 83.32 192.108 84.76ZM218.594 75.24C216.274 75.24 214.794 77.08 214.794 80V91H209.194V70.64H214.794V73.76C215.954 71.44 218.314 70.16 220.394 70.16C223.314 70.16 225.354 71.36 226.474 73.64C228.074 71.36 230.274 70.16 233.114 70.16C237.634 70.16 240.314 73.36 240.314 79.16V91H234.714V79.64C234.714 76.92 233.394 75.24 231.314 75.24C229.034 75.24 227.554 77.08 227.554 80V91H221.954V79.64C221.954 76.92 220.634 75.24 218.594 75.24ZM257.017 91.48C254.057 91.48 251.737 90.2 250.497 87.92V98.92H244.897V70.64H250.497V73.72C251.737 71.44 254.057 70.16 257.017 70.16C262.537 70.16 266.897 74.68 266.897 80.84C266.897 86.96 262.537 91.48 257.017 91.48ZM250.497 80.84C250.497 84.04 252.817 86.4 255.857 86.4C258.897 86.4 261.217 84.04 261.217 80.84C261.217 77.64 258.897 75.24 255.857 75.24C252.817 75.24 250.497 77.64 250.497 80.84ZM276.161 62.84V91H270.561V62.84H276.161ZM290.67 91.48C284.15 91.48 279.83 87.2 279.83 80.84C279.83 74.88 283.95 70.16 290.07 70.16C296.99 70.16 300.15 75.56 299.23 82.12H285.03C285.59 84.96 287.83 86.76 291.63 86.76C294.15 86.76 296.63 85.72 298.55 84.08V89.04C296.95 90.48 294.19 91.48 290.67 91.48ZM285.11 78.28H293.67C293.55 76.24 292.03 74.56 289.67 74.56C287.39 74.56 285.75 75.76 285.11 78.28ZM310.5 70.16C313.1 70.16 315.66 70.92 317.3 72.12V76.84C315.3 75.44 312.5 74.72 310.54 74.72C308.94 74.72 307.94 75.28 307.94 76.32C307.94 77.12 308.46 77.76 309.82 78.08L312.7 78.72C316.78 79.64 318.26 82.08 318.26 85.08C318.26 89.12 315.22 91.48 309.74 91.48C306.26 91.48 303.5 90 302.14 89V84C304.58 85.84 307.54 86.84 309.74 86.84C311.5 86.84 312.58 86.08 312.58 85C312.58 84.08 312.06 83.4 310.46 83.08L308.14 82.6C303.82 81.72 302.34 79.4 302.34 76.8C302.34 71.8 306.42 70.16 310.5 70.16Z" fill="#00182F"/>
<path d="M137 50.0596H329.731C334.116 50.0596 337.671 53.6146 337.671 58V96C337.671 100.385 334.116 103.94 329.731 103.94H129.06V58C129.06 53.6146 132.615 50.0596 137 50.0596Z" stroke="#00182F" stroke-width="4.11919"/>
</svg>
